<svg xmlns="http://www.w3.org/2000/svg" viewBox="0 0 205.2 39.999901" focusable="false">
    <path d="M181.047 37.102c0 .656.568.913 1.212.913.422 0 1.065-.111 
        1.065-.616 0-.455-.597-.587-1.272-.736-.116-.026-.235-.052-.353-.08-.813-.194-1.633-.477-1.633-1.405 
        0-1.01 1.058-1.494 2.047-1.494 1.143 0 2.194.45 2.194 1.59h-1.166c-.038-.593-.507-.746-1.082-.746-.383 
        0-.828.145-.828.56 0 .37.246.426 1.516.72l.117.028.047.01c.441.097 1.58.35 1.58 1.429 0 .905-.79 1.584-2.278 
        1.584-1.212 0-2.347-.54-2.332-1.757zm-64.8-3.3h-1.197v4.939h1.128v-3.306h.015l2.278 3.306h1.204V33.8h-1.128v3.314h-.015z"
        fill="#fff"></path>
    <path d="M122.334 35.068c-.89 0-1.803.277-1.864 1.197h1.089c.039-.388.306-.54.721-.54.383 0 .705.062.705.484 0 
        .33-.419.374-.938.43-.113.012-.231.024-.35.04-.676.083-1.35.277-1.35 1.087 0 .733.599 1.072 1.35 1.072.483 0 
        .99-.118 1.334-.443.007.118.039.235.077.346h1.104c-.099-.145-.138-.47-.138-.796v-1.86c0-.859-.95-1.017-1.74-1.017zm.005 
        2.095c.258-.032.508-.063.646-.172v.367c0 .214-.031.822-.882.822-.352 0-.667-.09-.667-.456 
        0-.36.307-.463.644-.525.085-.014.172-.025.259-.036z" fill="#fff" fill-rule="evenodd">
    </path>
    <path d="M125.667 37.58c.008.428.407.6.836.6.315 0 .713-.11.713-.456 0-.298-.452-.401-1.234-.553-.629-.125-1.258-.325-1.258-.955 
        0-.914.874-1.148 1.726-1.148.866 0 1.664.263 1.748 1.141h-1.035c-.031-.38-.353-.484-.744-.484-.246 0-.606.041-.606.332 0 
        .295.43.377.935.473.098.019.199.038.3.06.636.131 1.258.339 1.258 1.003 0 .94-.906 1.245-1.811 
        1.245-.919 0-1.817-.311-1.864-1.259zm6.538-3.779h-1.204v4.94h3.873v-.913h-2.669z"
        fill="#fff">
    </path>
    <path d="M137.265 35.067c1.25 0 2.055.748 2.055 1.89 0 1.134-.805 1.881-2.055 1.881-1.243 0-2.048-.747-2.048-1.882 0-1.141.805-1.889 
        2.048-1.889zm0 3.03c.744 0 .966-.573.966-1.14 0-.575-.222-1.149-.966-1.149-.736 0-.959.574-.959 1.148 0 
        .568.223 1.142.959 1.142z" fill="#fff" fill-rule="evenodd">
    </path>
    <path d="M140.024 34.611h1.089v-.81h-1.089zm-.423 4.58a.825.825 0 0 1-.238-.028v.81c.116.013.238.027.354.027 1.096 0 1.396-.346 1.396-1.078v-3.758h-1.089v3.708c0 .27-.2.32-.423.32z"
        fill="#fff"></path>
    <path d="M141.916 36.265c.061-.92.974-1.197 1.864-1.197.791 0 1.741.159 1.741 1.016v1.861c0 .326.038.65.137.796h-1.103a1.283 1.283 0 0 1-.077-.346c-.345.325-.852.443-1.334.443-.752 0-1.35-.34-1.35-1.072 0-.81.674-1.004 1.35-1.087.119-.016.237-.028.35-.04.519-.055.938-.1.938-.43 0-.422-.322-.484-.705-.484-.415 0-.683.152-.722.54zm2.516.726c-.138.11-.388.14-.647.172-.086.011-.174.022-.258.036-.338.062-.644.166-.644.525 0 .367.314.456.667.456.851 0 .882-.608.882-.822z"
        fill="#fff" fill-rule="evenodd"></path>
    <path d="M147.95 38.18c-.43 0-.828-.172-.836-.6h-1.036c.047.947.944 1.258 1.864 1.258.905 0 1.81-.304 1.81-1.245 0-.664-.621-.872-1.258-1.004a14.98 14.98 0 0 0-.299-.059c-.505-.096-.936-.178-.936-.473 0-.29.361-.332.606-.332.391 0 .714.104.744.484h1.035c-.084-.878-.881-1.141-1.748-1.141-.852 0-1.726.234-1.726 1.148 0 .63.629.83 1.258.955.783.152 1.235.255 1.235.553 0 .346-.398.456-.713.456z"
        fill="#fff"></path>
    <path d="M152.441 33.801h2.952c.982 0 1.603.616 1.603 1.363 0 .581-.261 1.018-.867 1.239v.013c.591.139.759.658.798 1.156.004.049.007.104.01.164.016.322.04.772.221 1.005h-1.206c-.097-.21-.122-.495-.147-.78-.012-.137-.024-.274-.044-.403-.084-.519-.306-.747-.913-.747h-1.203v1.93h-1.204zm1.204 2.235h1.319c.536 0 .829-.208.829-.705 0-.478-.293-.685-.829-.685h-1.319zm5.994 2.062c-.606 0-.944-.284-.975-.906h2.861c.077-1.1-.575-2.124-1.924-2.124-1.204 0-2.026.816-2.026 1.888 0 1.107.775 1.882 2.026 1.882.897 0 1.548-.36 1.855-1.204h-.958c-.069.222-.422.464-.859.464zm-.069-2.29c.529 0 .767.263.866.76h-1.772c.016-.276.215-.76.906-.76z"
        fill="#fff" fill-rule="evenodd"></path>
    <path d="M162.075 35.164h1.036v.499h.023c.276-.401.751-.596 1.212-.596 1.157 0 1.449.588 1.449 1.474v2.2h-1.09v-2.02c0-.588-.191-.878-.697-.878-.59 0-.844.297-.844 1.024v1.874h-1.089zm5.489 0h-1.035v3.577h1.089v-1.874c0-.727.253-1.024.844-1.024.505 0 .697.29.697.878v2.02h1.089v-2.2c0-.886-.291-1.474-1.449-1.474-.46 0-.936.195-1.212.596h-.023z"
        fill="#fff"></path>
    <path d="M171.879 37.192c.03.622.368.906.975.906.437 0 .789-.242.858-.464h.959c-.307.845-.959 1.204-1.856 1.204-1.251 0-2.025-.774-2.025-1.882 0-1.072.821-1.888 2.025-1.888 1.349 0 2.001 1.024 1.925 2.124zm1.772-.623c-.1-.498-.338-.76-.867-.76-.69 0-.889.483-.905.76z"
        fill="#fff" fill-rule="evenodd"></path>
    <path d="M176.325 35.164h-1.036v3.577h1.09V37.13c0-.63.275-1.149 1.073-1.149.131 0 .292.014.392.034v-.913a.892.892 0 0 0-.239-.035c-.529 0-1.065.312-1.265.761h-.015zm9.919 2.511h-1.203v1.066h1.203z"
        fill="#fff"></path>
    <path d="M188.643 33.801h1.235l2.048 4.94h-1.25l-.414-1.1h-2.048l-.429 1.1h-1.22zm-.115 3.03h1.419l-.69-1.812h-.015z" fill="#fff"
        fill-rule="evenodd"></path>
    <path d="M193.441 37.675h-1.203v1.066h1.203z" fill="#fff"></path>
    <path d="M107.211 30.526H205.2V.001h-97.989z" fill="#e52d33"></path>
    <path d="M118.387 14.926c-1.807 0-3.497-.813-3.474-2.65h1.736c0 .991.846 1.378 1.807 1.378.629 0 1.59-.167 1.59-.93 0-.686-.892-.885-1.9-1.11a29.13 29.13 0 0 1-.525-.122c-1.212-.292-2.434-.72-2.434-2.119 0-1.524 1.576-2.254 3.052-2.254 1.703 0 3.268.678 3.268 2.4h-1.736c-.057-.898-.755-1.127-1.613-1.127-.571 0-1.235.219-1.235.845 0 .557.365.642 2.25 1.084l.186.044.071.016c.657.147 2.352.527 2.352 2.155 0 1.368-1.177 2.39-3.395 2.39z"
        fill="#fff"></path>
    <path d="M126.503 14.926c-2.527 0-4.012-1.721-4.012-3.872 0-2.214 1.485-3.935 4.012-3.935 2.527 0 4.012 1.721 4.012 3.935 0 2.15-1.485 3.872-4.012 3.872zm0-6.43c-1.612 0-2.219 1.253-2.219 2.558 0 1.242.607 2.495 2.219 2.495 1.612 0 2.219-1.253 2.219-2.495 0-1.305-.607-2.558-2.219-2.558z"
        fill="#fff" fill-rule="evenodd"></path>
    <path d="M137.51 14.748h-5.771V7.297h1.793v6.075h3.978zm6.14-7.451h1.794v4.635c0 2.013-1.302 2.994-3.486 2.994-2.195 0-3.475-.97-3.475-2.994V7.297h1.793v4.635c0 .814.229 1.617 1.682 1.617 1.28 0 1.692-.51 1.692-1.617zm6.996-.178c1.793 0 3.302.96 3.519 2.682h-1.737c-.114-.741-.891-1.305-1.782-1.305-1.613 0-2.219 1.252-2.219 2.557 0 1.242.606 2.495 2.219 2.495 1.097 0 1.713-.689 1.85-1.67h1.738c-.183 1.847-1.566 3.027-3.553 3.048l-.298.377h.023c.068-.032.194-.053.388-.053.515 0 1.051.22 1.051.73 0 .815-.661 1.044-1.336 1.044-.687 0-.958-.085-1.359-.211l-.059-.019.239-.5c.241.094.573.188.961.188.275 0 .459-.105.459-.356 0-.261-.207-.334-.459-.334-.16 0-.332.031-.458.073l-.239-.25.548-.72c-2.218-.21-3.509-1.838-3.509-3.842 0-2.213 1.485-3.934 4.013-3.934z"
        fill="#fff"></path>
    <path d="M159.116 14.926c-2.527 0-4.012-1.721-4.012-3.872 0-2.214 1.485-3.935 4.012-3.935 2.526 0 4.011 1.721 4.011 3.935 0 2.15-1.485 3.872-4.011 3.872zm0-6.43c-1.613 0-2.218 1.253-2.218 2.558 0 1.242.605 2.495 2.218 2.495 1.612 0 2.218-1.253 2.218-2.495 0-1.305-.606-2.558-2.218-2.558z"
        fill="#fff" fill-rule="evenodd"></path>
    <path d="M159.95 5.606c.343 0 .492-.167.48-.365h.789l-.007.023c-.078.235-.17.516-.347.749-.183.24-.457.416-.926.416-.332 0-.632-.087-.91-.169l-.028-.008-.01-.003c-.282-.093-.53-.174-.79-.174-.309 0-.411.177-.48.438h-.698c.148-.605.434-1.272 1.441-1.272.232 0 .438.073.648.148l.083.03c.241.093.492.187.755.187zm10.596 9.142h-6.194V7.297h6.103v1.377h-4.31v1.598h3.956v1.272h-3.956v1.828h4.401zm4.173.178c-1.807 0-3.498-.813-3.474-2.65h1.735c0 .991.847 1.378 1.808 1.378.629 0 1.589-.167 1.589-.93 0-.686-.892-.885-1.899-1.11-.173-.04-.35-.079-.525-.122-1.212-.292-2.434-.72-2.434-2.119 0-1.524 1.576-2.254 3.052-2.254 1.704 0 3.268.678 3.268 2.4h-1.736c-.057-.898-.755-1.127-1.613-1.127-.571 0-1.235.219-1.235.845 0 .557.365.642 2.25 1.084l.186.044.071.016c.657.147 2.352.527 2.352 2.155 0 1.368-1.177 2.39-3.395 2.39zm-57.498 9.762h-1.794v-7.452h5.737v1.377h-3.943v1.723h3.418v1.273h-3.418zm6.777 0h-1.793v-7.452h1.793zm3.259 0h-1.679v-7.452h1.782l3.407 5h.023v-5h1.68v7.452h-1.794L127.28 19.7h-.023z"
        fill="#fff"></path>
    <path d="M134.997 24.688h-1.817l3.097-7.452h1.839l3.053 7.452h-1.864l-.617-1.66h-3.052zm2.194-5.614h-.023l-1.063 2.734h2.115z"
        fill="#fff" fill-rule="evenodd"></path>
    <path d="M143.558 24.688h-1.679v-7.452h1.782l3.407 5h.023v-5h1.679v7.452h-1.793L143.58 19.7h-.022zm10.447-7.63c1.795 0 3.304.96 3.521 2.682h-1.737c-.115-.74-.893-1.305-1.784-1.305-1.611 0-2.217 1.254-2.217 2.558 0 1.243.606 2.496 2.217 2.496 1.098 0 1.715-.69 1.851-1.67h1.738c-.183 1.857-1.588 3.046-3.589 3.046-2.525 0-4.01-1.72-4.01-3.872 0-2.213 1.485-3.934 4.01-3.934zm11.009 7.63h-6.195v-7.452h6.103v1.377h-4.309v1.598h3.955v1.272h-3.955v1.828h4.401zm3.006 0h-1.793v-7.452h1.793z"
        fill="#fff"></path>
    <path d="M171.392 24.688h-1.794v-7.452H174c1.462 0 2.388.929 2.388 2.056 0 .877-.389 1.535-1.291 1.868v.021c.879.208 1.131.991 1.188 1.743.005.074.01.159.014.25.025.485.059 1.162.328 1.514h-1.793c-.147-.318-.184-.75-.221-1.18a8.576 8.576 0 0 0-.065-.605c-.125-.783-.457-1.128-1.36-1.128h-1.796zm1.967-6.18h-1.967v2.1h1.967c.8 0 1.235-.314 1.235-1.066 0-.72-.435-1.033-1.235-1.033zm5.441 6.18h-1.817l3.097-7.452h1.841l3.051 7.452h-1.863l-.617-1.66h-3.052zm2.195-5.614h-.023l-1.063 2.734h2.114z"
        fill="#fff" fill-rule="evenodd"></path>
    <path d="M188.642 24.865c-1.807 0-3.497-.814-3.475-2.65h1.736c0 .992.847 1.378 1.808 1.378.629 0 1.589-.167 1.589-.93 0-.685-.891-.884-1.898-1.11-.174-.039-.35-.078-.526-.121-1.212-.292-2.434-.72-2.434-2.12 0-1.523 1.576-2.253 3.051-2.253 1.704 0 3.269.678 3.269 2.4h-1.736c-.057-.898-.755-1.128-1.613-1.128-.572 0-1.235.22-1.235.846 0 .556.365.642 2.251 1.084l.185.043c.023.006.047.01.072.017.657.147 2.351.527 2.351 2.155 0 1.368-1.177 2.39-3.395 2.39z"
        fill="#fff"></path>
    <path d="M95.711 11.565a9.895 9.895 0 0 1 1.863 3.698 13.47 13.47 0 0 1 .512 4.337H78.064c.03 1.474.216 2.849.559 4.124.372 1.247.93 2.339 1.675 3.274.745.936 1.708 1.672 2.888 2.21 1.18.54 2.622.809 4.33.809 2.514 0 4.595-.595 6.239-1.786 1.677-1.219 2.716-3.033 3.12-5.443h.932c-.342 2.551-1.444 4.536-3.306 5.954-1.863 1.389-4.16 2.082-6.892 2.082-1.863.028-3.46-.24-4.796-.807-1.304-.567-2.374-1.36-3.213-2.382-.838-1.048-1.459-2.267-1.862-3.656-.404-1.417-.606-2.933-.606-4.549 0-1.814.295-3.43.885-4.847.59-1.417 1.366-2.608 2.328-3.571a9.603 9.603 0 0 1 3.352-2.254 10.43 10.43 0 0 1 3.912-.765c1.862 0 3.461.326 4.796.978 1.366.652 2.468 1.516 3.306 2.594zm-16.716 3.06c-.527 1.22-.838 2.594-.931 4.125h19.09a11.71 11.71 0 0 0-.605-3.785 9.011 9.011 0 0 0-1.815-3.189c-.777-.906-1.755-1.615-2.935-2.125-1.179-.54-2.545-.808-4.097-.808a9.93 9.93 0 0 0-3.678.68 8.826 8.826 0 0 0-2.98 2c-.838.85-1.521 1.883-2.05 3.103z"
        fill="#fff" fill-rule="evenodd"></path>
    <path d="M77.011 9.566L60.25 29.507h17.507v.85H59.27v-1.063l16.764-19.94H60.528v-.851H77.01z" fill="#fff"></path>
    <path d="M50.762 29.592c.373-.028.714-.057 1.024-.085v.85h-1.397c-.683 0-1.288-.142-1.817-.425-.496-.311-.743-.879-.743-1.7v-2.85h-.094c-.249.71-.652 1.39-1.21 2.041-.528.652-1.21 1.233-2.05 1.744-.807.51-1.738.907-2.793 1.19-1.055.312-2.204.467-3.446.467-2.42 0-4.361-.481-5.82-1.445-1.46-.993-2.189-2.466-2.189-4.422 0-1.36.233-2.452.699-3.274.496-.821 1.133-1.46 1.909-1.913.776-.482 1.66-.807 2.654-.977.993-.2 1.986-.327 2.98-.383 1.646-.086 3.058-.156 4.237-.213 1.18-.085 2.142-.227 2.887-.425.776-.227 1.335-.553 1.676-.978.374-.454.56-1.092.56-1.914 0-.65-.063-1.332-.186-2.04-.125-.709-.436-1.36-.932-1.956-.465-.595-1.164-1.077-2.096-1.445-.93-.397-2.187-.596-3.77-.596-2.515 0-4.471.567-5.868 1.701-1.397 1.106-2.173 2.678-2.328 4.719h-.932a7.94 7.94 0 0 1 .698-2.848 6.695 6.695 0 0 1 1.724-2.339c.776-.651 1.707-1.161 2.793-1.53 1.118-.369 2.421-.553 3.912-.553 1.055 0 2.049.099 2.98.297.962.199 1.8.553 2.515 1.063a5.385 5.385 0 0 1 1.722 1.914c.435.793.668 1.785.699 2.975v13.905c0 .425.093.737.28.935.185.198.434.34.743.425.31.057.637.085.979.085zm-3.586-4.89a7.953 7.953 0 0 0 .653-3.146v-4.04h-.094c-.31.397-.791.71-1.443.936-.652.198-1.398.355-2.236.468a26.13 26.13 0 0 1-2.746.212c-.963.029-1.91.071-2.84.128a22.04 22.04 0 0 0-2.748.34 6.246 6.246 0 0 0-2.328.85c-.683.397-1.226.964-1.63 1.701-.404.708-.605 1.644-.605 2.806 0 .624.108 1.247.326 1.87.248.596.652 1.135 1.21 1.617.559.453 1.273.836 2.142 1.148.9.284 2.003.425 3.306.425 1.553 0 2.934-.241 4.144-.723 1.211-.482 2.22-1.106 3.027-1.87a7.538 7.538 0 0 0 1.862-2.722zm-18.56-9.439a13.47 13.47 0 0 1 .513 4.337H9.107c.03 1.474.217 2.849.559 4.124.372 1.247.93 2.339 1.676 3.274.745.936 1.707 1.672 2.887 2.21 1.18.54 2.623.809 4.33.809 2.514 0 4.595-.595 6.24-1.786 1.676-1.219 2.716-3.033 3.12-5.443h.93c-.341 2.551-1.444 4.536-3.305 5.954-1.863 1.389-4.16 2.082-6.892 2.082-1.863.028-3.46-.24-4.796-.807-1.304-.567-2.374-1.36-3.213-2.382-.837-1.048-1.458-2.267-1.862-3.656-.404-1.417-.606-2.933-.606-4.549 0-1.814.296-3.43.885-4.847.59-1.417 1.366-2.608 2.328-3.571a9.605 9.605 0 0 1 3.353-2.254 10.425 10.425 0 0 1 3.911-.765c1.863 0 3.462.326 4.796.978 1.366.652 2.468 1.516 3.306 2.594a9.883 9.883 0 0 1 1.863 3.698zm-18.578-.637c-.527 1.218-.838 2.593-.931 4.124h19.09a11.71 11.71 0 0 0-.605-3.785c-.404-1.218-1.008-2.281-1.815-3.189-.777-.906-1.755-1.615-2.934-2.125-1.18-.54-2.545-.808-4.097-.808-1.304 0-2.53.227-3.68.68a8.815 8.815 0 0 0-2.979 2c-.839.85-1.521 1.883-2.05 3.103z"
        fill="#fff" fill-rule="evenodd"></path>
    <path d="M6.658 8.418c1.087-.312 2.344-.453 3.772-.425v.85c-1.645-.085-3.073.127-4.283.638-1.18.482-2.158 1.162-2.934 2.041a8.116 8.116 0 0 0-1.723 2.976 11.106 11.106 0 0 0-.559 3.487v12.373H0V8.503h.931v5.4h.094a7.719 7.719 0 0 1 1.024-2.296 6.65 6.65 0 0 1 1.862-1.913c.776-.539 1.692-.964 2.747-1.276zm50.91 21.94h-.932V8.504h.931zm0-26.064h-.932V0h.931zm-3.566 26.064h-.931V0H54z"
        fill="#fff"></path>
</svg>